<?xml version="1.0" encoding="UTF-8"?>
<!DOCTYPE svg PUBLIC "-//W3C//DTD SVG 1.1//EN" "http://www.w3.org/Graphics/SVG/1.1/DTD/svg11.dtd">
<svg xmlns="http://www.w3.org/2000/svg" version="1.1" width="109px" height="111px" style="shape-rendering:geometricPrecision; text-rendering:geometricPrecision; image-rendering:optimizeQuality; fill-rule:evenodd; clip-rule:evenodd" xmlns:xlink="http://www.w3.org/1999/xlink">
<g><path style="opacity:0.996" fill="#145c93" d="M 71.5,8.5 C 62.9302,6.63497 54.2635,6.13497 45.5,7C 51.1667,7.33333 56.8333,7.66667 62.5,8C 64.6526,8.09946 66.3192,8.9328 67.5,10.5C 37.6637,4.66713 18.4971,16.3338 10,45.5C 8.46927,76.4813 22.9693,94.148 53.5,98.5C 49.1071,98.4573 44.7738,98.2907 40.5,98C 42.9269,98.9023 45.2603,99.7356 47.5,100.5C 21.617,95.6099 7.61698,79.9432 5.5,53.5C 7.99137,23.5079 24.158,7.50787 54,5.5C 60.2199,5.05754 66.0532,6.05754 71.5,8.5 Z"/></g>
<g><path style="opacity:1" fill="#0577ae" d="M 71.5,8.5 C 88.081,14.9847 98.081,26.9847 101.5,44.5C 100.883,44.3893 100.383,44.056 100,43.5C 99.5034,45.8098 99.3367,48.1432 99.5,50.5C 99.1667,50.5 98.8333,50.5 98.5,50.5C 96.416,30.7519 86.0827,17.4185 67.5,10.5C 66.3192,8.9328 64.6526,8.09946 62.5,8C 56.8333,7.66667 51.1667,7.33333 45.5,7C 54.2635,6.13497 62.9302,6.63497 71.5,8.5 Z"/></g>
<g><path style="opacity:1" fill="#0398d9" d="M 36.5,48.5 C 36.2606,50.4672 36.5939,52.3005 37.5,54C 35.9623,59.2164 34.629,64.383 33.5,69.5C 32.6255,66.4651 31.6255,63.4651 30.5,60.5C 28.5033,51.5503 26.5033,42.5503 24.5,33.5C 26.252,29.0206 29.0854,28.3539 33,31.5C 34.6162,37.0811 35.7829,42.7478 36.5,48.5 Z"/></g>
<g><path style="opacity:1" fill="#1b69ac" d="M 82.5,57.5 C 82.3568,54.9026 81.5234,52.5692 80,50.5C 78.2173,54.2982 77.3839,58.2982 77.5,62.5C 77.1634,67.3567 75.8301,71.8567 73.5,76C 71.5,76.6667 69.5,76.6667 67.5,76C 65.3356,68.52 63.169,61.02 61,53.5C 60,56.5 59,59.5 58,62.5C 51.3676,64.399 47.8676,61.7324 47.5,54.5C 48.9663,55.347 49.7996,56.6803 50,58.5C 52.1026,53.698 53.2692,48.698 53.5,43.5C 55.2659,39.7152 56.7659,35.7152 58,31.5C 61.8886,28.3895 64.8886,29.0561 67,33.5C 68.0797,38.8987 69.413,44.2321 71,49.5C 72.188,43.4148 73.688,37.4148 75.5,31.5C 78.6705,28.6647 81.5038,28.9981 84,32.5C 86.6316,41.395 89.465,50.2284 92.5,59C 91.1219,63.4379 88.2886,64.6046 84,62.5C 82.9914,60.9751 82.4914,59.3084 82.5,57.5 Z"/></g>
<g><path style="opacity:1" fill="#2ea0d6" d="M 53.5,43.5 C 53.2692,48.698 52.1026,53.698 50,58.5C 49.7996,56.6803 48.9663,55.347 47.5,54.5C 47.5,54.1667 47.5,53.8333 47.5,53.5C 47.6567,52.1266 47.49,50.7932 47,49.5C 45.0588,54.268 43.8921,59.268 43.5,64.5C 43.5122,68.6186 42.5122,72.4519 40.5,76C 38.5,76.6667 36.5,76.6667 34.5,76C 33.7476,75.3292 33.4142,74.4959 33.5,73.5C 33.5,72.1667 33.5,70.8333 33.5,69.5C 34.629,64.383 35.9623,59.2164 37.5,54C 36.5939,52.3005 36.2606,50.4672 36.5,48.5C 37.1174,48.3893 37.6174,48.056 38,47.5C 39.1577,43.2026 40.1577,38.8693 41,34.5C 42.5943,29.2485 45.5943,28.2485 50,31.5C 51.7897,35.3268 52.9564,39.3268 53.5,43.5 Z"/></g>
<g><path style="opacity:1" fill="#3099cb" d="M 24.5,33.5 C 26.5033,42.5503 28.5033,51.5503 30.5,60.5C 29.3794,58.0458 28.546,55.3791 28,52.5C 27.0716,56.2977 25.5716,59.7977 23.5,63C 21.2305,63.7581 19.0639,63.5914 17,62.5C 17.5662,52.3069 20.0662,42.6403 24.5,33.5 Z"/></g>
<g><path style="opacity:0.784" fill="#25769e" d="M 47.5,53.5 C 46.0131,57.1165 44.6798,60.7831 43.5,64.5C 43.8921,59.268 45.0588,54.268 47,49.5C 47.49,50.7932 47.6567,52.1266 47.5,53.5 Z"/></g>
<g><path style="opacity:0.749" fill="#154775" d="M 82.5,57.5 C 81.4415,56.3998 80.6082,55.0664 80,53.5C 79.3405,56.678 78.5072,59.678 77.5,62.5C 77.3839,58.2982 78.2173,54.2982 80,50.5C 81.5234,52.5692 82.3568,54.9026 82.5,57.5 Z"/></g>
<g><path style="opacity:1" fill="#0087c1" d="M 101.5,44.5 C 102.734,50.8124 102.734,57.1457 101.5,63.5C 100.21,64.0577 99.3768,65.0577 99,66.5C 99.339,61.2268 99.5057,55.8934 99.5,50.5C 99.3367,48.1432 99.5034,45.8098 100,43.5C 100.383,44.056 100.883,44.3893 101.5,44.5 Z"/></g>
<g><path style="opacity:0.8" fill="#0a6d9b" d="M 30.5,60.5 C 31.6255,63.4651 32.6255,66.4651 33.5,69.5C 33.5,70.8333 33.5,72.1667 33.5,73.5C 31.6268,69.4848 30.6268,65.1515 30.5,60.5 Z"/></g>
<g><path style="opacity:1" fill="#0870a5" d="M 98.5,50.5 C 98.8333,50.5 99.1667,50.5 99.5,50.5C 99.5057,55.8934 99.339,61.2268 99,66.5C 99.3768,65.0577 100.21,64.0577 101.5,63.5C 93.1896,90.3007 75.1896,102.634 47.5,100.5C 45.2603,99.7356 42.9269,98.9023 40.5,98C 44.7738,98.2907 49.1071,98.4573 53.5,98.5C 82.3022,95.3663 97.3022,79.3663 98.5,50.5 Z"/></g>
</svg>
