<?xml version="1.0" encoding="UTF-8"?>
<!DOCTYPE svg PUBLIC "-//W3C//DTD SVG 1.1//EN" "http://www.w3.org/Graphics/SVG/1.1/DTD/svg11.dtd">
<svg xmlns="http://www.w3.org/2000/svg" version="1.1" width="182px" height="80px" style="shape-rendering:geometricPrecision; text-rendering:geometricPrecision; image-rendering:optimizeQuality; fill-rule:evenodd; clip-rule:evenodd" xmlns:xlink="http://www.w3.org/1999/xlink">
<g><path style="opacity:1" fill="#0496d5" d="M 83.5,27.5 C 82.2854,32.1213 81.2854,36.788 80.5,41.5C 79.087,38.7814 78.4203,35.7814 78.5,32.5C 78.0825,31.7784 77.4158,31.2784 76.5,31C 77.0968,29.9383 77.4302,28.7716 77.5,27.5C 76.8278,24.4877 76.1611,21.4877 75.5,18.5C 76.5849,16.4178 78.0849,16.0844 80,17.5C 81.1836,20.9419 82.3503,24.2752 83.5,27.5 Z"/></g>
<g><path style="opacity:1" fill="#2e9fd5" d="M 92.5,22.5 C 92.4835,26.5339 91.4835,30.2006 89.5,33.5C 88.528,32.2486 87.8614,32.582 87.5,34.5C 86.9589,37.2076 86.2923,39.8743 85.5,42.5C 84.6667,42.8333 83.8333,43.1667 83,43.5C 81.6244,43.3158 80.7911,42.6491 80.5,41.5C 81.2854,36.788 82.2854,32.1213 83.5,27.5C 83.7819,24.0903 84.4486,20.757 85.5,17.5C 86.723,16.3861 88.0563,16.2195 89.5,17C 90.6087,18.8761 91.6087,20.7095 92.5,22.5 Z"/></g>
<g><path style="opacity:1" fill="#1b69ad" d="M 89.5,33.5 C 91.4835,30.2006 92.4835,26.5339 92.5,22.5C 93.3913,20.7095 94.3913,18.8761 95.5,17C 96.8333,16.3333 98.1667,16.3333 99.5,17C 100.455,20.0994 101.289,23.266 102,26.5C 103,23.5 104,20.5 105,17.5C 107.022,16.0091 108.688,16.3424 110,18.5C 112.392,23.9903 113.726,29.657 114,35.5C 110.348,36.9947 108.348,35.6614 108,31.5C 106.749,35.082 105.749,38.7487 105,42.5C 103.301,43.4061 101.467,43.7394 99.5,43.5C 98.8611,39.4728 98.0278,35.4728 97,31.5C 95.98,32.8905 95.1466,34.3905 94.5,36C 91.7383,37.0769 90.0717,36.2436 89.5,33.5 Z"/></g>
<g><path style="opacity:1" fill="#319acc" d="M 75.5,18.5 C 76.1611,21.4877 76.8278,24.4877 77.5,27.5C 77.4302,28.7716 77.0968,29.9383 76.5,31C 77.4158,31.2784 78.0825,31.7784 78.5,32.5C 76.9743,33.1047 75.9743,34.2714 75.5,36C 70.9167,36.9337 69.4167,35.1004 71,30.5C 72.5148,26.3904 74.0148,22.3904 75.5,18.5 Z"/></g>
<g><path style="opacity:0.855" fill="#155c95" d="M 85.5,3.5 C 85.8417,4.33825 86.5084,4.67158 87.5,4.5C 68.5072,12.1625 63.0072,25.4959 71,44.5C 73.7291,47.3993 76.5624,50.066 79.5,52.5C 78.209,52.2627 77.209,52.596 76.5,53.5C 63.6993,42.6095 61.1993,29.6095 69,14.5C 73.0455,8.61611 78.5455,4.94945 85.5,3.5 Z"/></g>
<g><path style="opacity:0.925" fill="#0776ae" d="M 76.5,53.5 C 77.209,52.596 78.209,52.2627 79.5,52.5C 98.6705,59.8297 111.504,53.8297 118,34.5C 117.973,14.307 107.806,4.30697 87.5,4.5C 86.5084,4.67158 85.8417,4.33825 85.5,3.5C 109.722,0.883684 121.222,11.8837 120,36.5C 114.111,54.3642 101.944,61.1975 83.5,57C 81.1401,55.8201 78.8068,54.6534 76.5,53.5 Z"/></g>
<g><path style="opacity:0.929" fill="#0477aa" d="M 96.5,63.5 C 98.7373,64.449 101.071,65.1156 103.5,65.5C 103.678,69.1021 104.678,69.1021 106.5,65.5C 108.987,65.7824 111.653,65.7824 114.5,65.5C 114.5,67.8333 114.5,70.1667 114.5,72.5C 112.473,72.6621 110.473,72.4955 108.5,72C 107.809,70.9326 107.309,69.7659 107,68.5C 106.804,70.2861 105.971,71.6195 104.5,72.5C 103.5,71.1667 102.5,71.1667 101.5,72.5C 100.335,71.5089 99.1681,70.5089 98,69.5C 96.8319,70.5089 95.6652,71.5089 94.5,72.5C 94.1667,72.1667 93.8333,71.8333 93.5,71.5C 94.9,68.9646 95.9,66.298 96.5,63.5 Z M 109.5,67.5 C 110.5,67.5 111.5,67.5 112.5,67.5C 112.5,68.5 112.5,69.5 112.5,70.5C 111.5,70.5 110.5,70.5 109.5,70.5C 109.5,69.5 109.5,68.5 109.5,67.5 Z"/></g>
<g><path style="opacity:0.467" fill="#0575a8" d="M 83.5,65.5 C 83.5,67.8333 83.5,70.1667 83.5,72.5C 81.1432,72.6633 78.8098,72.4966 76.5,72C 75.8742,71.2496 75.3742,70.4162 75,69.5C 74.0192,72.6887 72.6859,73.022 71,70.5C 70.2904,71.9733 69.1238,72.6399 67.5,72.5C 67.6495,71.448 67.4828,70.448 67,69.5C 66.5917,71.4096 65.4251,72.4096 63.5,72.5C 60.6446,72.2779 57.6446,72.1112 54.5,72C 53.8742,71.2496 53.3742,70.4162 53,69.5C 52.7508,70.624 52.2508,71.624 51.5,72.5C 50.7022,70.9223 50.2022,69.2556 50,67.5C 49.9783,72.044 47.8116,73.544 43.5,72C 41.3333,66.1667 43.1667,64.3333 49,66.5C 49.8333,65.5 50.6667,64.5 51.5,63.5C 52.3333,64.5 53.1667,65.5 54,66.5C 57.3029,65.8688 60.4695,64.8688 63.5,63.5C 66.2757,64.1367 68.109,65.8034 69,68.5C 70.3333,65.8333 71.6667,65.8333 73,68.5C 73.4828,67.552 73.6495,66.552 73.5,65.5C 76.8333,65.5 80.1667,65.5 83.5,65.5 Z M 55.5,67.5 C 56.5,67.5 57.5,67.5 58.5,67.5C 58.5,68.5 58.5,69.5 58.5,70.5C 57.5,70.5 56.5,70.5 55.5,70.5C 55.5,69.5 55.5,68.5 55.5,67.5 Z M 60.5,67.5 C 64.7678,69.3153 65.1012,69.9819 61.5,69.5C 60.7025,69.0431 60.3691,68.3764 60.5,67.5 Z M 78.5,67.5 C 82.0749,68.2068 82.2416,69.2068 79,70.5C 77.3167,69.8235 77.1501,68.8235 78.5,67.5 Z"/></g>
<g><path style="opacity:0.827" fill="#027aaf" d="M 40.5,72.5 C 40.8625,67.6442 40.1958,66.9776 38.5,70.5C 38.1788,72.0481 37.1788,72.7148 35.5,72.5C 35.4042,68.6893 34.7376,68.6893 33.5,72.5C 32.1667,69.5 32.1667,66.5 33.5,63.5C 35.1461,64.7786 36.3128,66.4453 37,68.5C 37.8996,66.6025 39.0663,64.9358 40.5,63.5C 41.8032,66.6447 41.8032,69.6447 40.5,72.5 Z"/></g>
<g><path style="opacity:0.089" fill="#041116" d="M 40.5,72.5 C 39.8333,71.8333 39.1667,71.1667 38.5,70.5C 40.1958,66.9776 40.8625,67.6442 40.5,72.5 Z"/></g>
<g><path style="opacity:0.949" fill="#0574a6" d="M 139.5,63.5 C 141.74,64.6585 143.906,65.9918 146,67.5C 147.884,65.4237 150.051,65.0903 152.5,66.5C 154.102,69.5292 153.269,71.5292 150,72.5C 148.289,72.5607 146.956,71.8941 146,70.5C 145.692,71.3081 145.192,71.9747 144.5,72.5C 143.167,65.8333 141.833,65.8333 140.5,72.5C 138.328,72.3241 135.995,72.1575 133.5,72C 132.324,70.0858 131.324,70.2524 130.5,72.5C 129.167,65.8333 127.833,65.8333 126.5,72.5C 125.526,70.2573 125.192,67.924 125.5,65.5C 128.044,65.1043 130.211,65.771 132,67.5C 134.398,64.9456 136.731,64.9456 139,67.5C 139.49,66.2068 139.657,64.8734 139.5,63.5 Z M 134.5,67.5 C 140.181,68.1926 140.515,69.1926 135.5,70.5C 133.481,69.8671 133.147,68.8671 134.5,67.5 Z"/></g>
<g><path style="opacity:0.984" fill="#0383bc" d="M 83.5,65.5 C 89.6624,64.1555 91.6624,66.3222 89.5,72C 87.5595,72.3036 85.8928,73.1369 84.5,74.5C 83.7025,74.0431 83.3691,73.3764 83.5,72.5C 83.5,70.1667 83.5,67.8333 83.5,65.5 Z M 85.5,67.5 C 86.5,67.5 87.5,67.5 88.5,67.5C 88.5,68.5 88.5,69.5 88.5,70.5C 87.5,70.5 86.5,70.5 85.5,70.5C 85.5,69.5 85.5,68.5 85.5,67.5 Z"/></g>
<g><path style="opacity:0.573" fill="#0279ae" d="M 115.5,63.5 C 116.931,63.8807 117.764,64.8807 118,66.5C 120.041,65.5769 122.208,65.2436 124.5,65.5C 124.5,67.8333 124.5,70.1667 124.5,72.5C 121.653,72.2176 118.987,72.2176 116.5,72.5C 115.516,69.5719 115.183,66.5719 115.5,63.5 Z M 119.5,67.5 C 120.5,67.5 121.5,67.5 122.5,67.5C 122.5,68.5 122.5,69.5 122.5,70.5C 121.5,70.5 120.5,70.5 119.5,70.5C 119.5,69.5 119.5,68.5 119.5,67.5 Z"/></g>
</svg>
